<mxfile host="Electron" modified="2024-10-02T15:24:21.579Z" agent="Mozilla/5.0 (Windows NT 10.0; Win64; x64) AppleWebKit/537.36 (KHTML, like Gecko) draw.io/24.4.6 Chrome/124.0.6367.207 Electron/30.0.6 Safari/537.36" etag="i94s1qS-PwmGiq9Ki40x" version="24.4.6" type="device">
  <diagram name="Page-1" id="IwJvzvUXdS9PoyesCQaG">
    <mxGraphModel dx="600" dy="355" grid="1" gridSize="10" guides="1" tooltips="1" connect="1" arrows="1" fold="1" page="1" pageScale="1" pageWidth="827" pageHeight="1169" math="0" shadow="0">
      <root>
        <mxCell id="0" />
        <mxCell id="1" parent="0" />
        <mxCell id="3eFl4KUX2gc5b1KYm5h8-2" value="State (SVG)" style="rounded=1;whiteSpace=wrap;html=1;fillColor=#dae8fc;strokeColor=#6c8ebf;" vertex="1" parent="1">
          <mxGeometry x="250" y="150" width="120" height="120" as="geometry" />
        </mxCell>
        <mxCell id="3eFl4KUX2gc5b1KYm5h8-3" value="&lt;div&gt;&lt;span style=&quot;background-color: initial;&quot;&gt;Resource Management&lt;/span&gt;&lt;br&gt;&lt;/div&gt;" style="rounded=1;whiteSpace=wrap;html=1;fillColor=#d5e8d4;strokeColor=#82b366;" vertex="1" parent="1">
          <mxGeometry x="110" y="110" width="90" height="60" as="geometry" />
        </mxCell>
        <mxCell id="3eFl4KUX2gc5b1KYm5h8-4" value="Tracking" style="rounded=1;whiteSpace=wrap;html=1;fillColor=#d5e8d4;strokeColor=#82b366;" vertex="1" parent="1">
          <mxGeometry x="110" y="250" width="90" height="60" as="geometry" />
        </mxCell>
        <mxCell id="3eFl4KUX2gc5b1KYm5h8-5" value="System Monitoring" style="rounded=1;whiteSpace=wrap;html=1;fillColor=#d5e8d4;strokeColor=#82b366;" vertex="1" parent="1">
          <mxGeometry x="110" y="180" width="90" height="60" as="geometry" />
        </mxCell>
        <mxCell id="3eFl4KUX2gc5b1KYm5h8-7" value="Guidance&amp;nbsp;&lt;div&gt;Agent&lt;/div&gt;" style="rounded=1;whiteSpace=wrap;html=1;fillColor=#f8cecc;strokeColor=#b85450;" vertex="1" parent="1">
          <mxGeometry x="400" y="220" width="90" height="90" as="geometry" />
        </mxCell>
        <mxCell id="3eFl4KUX2gc5b1KYm5h8-9" value="" style="group" vertex="1" connectable="0" parent="1">
          <mxGeometry x="400" y="110" width="90" height="90" as="geometry" />
        </mxCell>
        <mxCell id="3eFl4KUX2gc5b1KYm5h8-6" value="Avatar" style="rounded=1;whiteSpace=wrap;html=1;fillColor=#f8cecc;strokeColor=#b85450;verticalAlign=top;" vertex="1" parent="3eFl4KUX2gc5b1KYm5h8-9">
          <mxGeometry width="90" height="90" as="geometry" />
        </mxCell>
        <mxCell id="3eFl4KUX2gc5b1KYm5h8-8" value="UI" style="rounded=1;whiteSpace=wrap;html=1;" vertex="1" parent="3eFl4KUX2gc5b1KYm5h8-9">
          <mxGeometry x="15.25" y="50" width="59.5" height="30" as="geometry" />
        </mxCell>
        <mxCell id="3eFl4KUX2gc5b1KYm5h8-10" value="Task Specific Agents" style="rounded=1;whiteSpace=wrap;html=1;fillColor=none;strokeColor=none;" vertex="1" parent="1">
          <mxGeometry x="112.5" y="70" width="85" height="40" as="geometry" />
        </mxCell>
      </root>
    </mxGraphModel>
  </diagram>
</mxfile>
